<mxfile host="app.diagrams.net" modified="2021-09-17T14:56:23.248Z" agent="5.0 (Windows NT 10.0) AppleWebKit/537.36 (KHTML, like Gecko) Chrome/93.0.4577.82 Safari/537.36" etag="zjL4ERg6F2WtrZY5j7us" version="15.2.9" type="github">
  <diagram id="g2NUz2KttaQ05N3WQa0I" name="Page-1">
    <mxGraphModel dx="1117" dy="1902" grid="1" gridSize="10" guides="1" tooltips="1" connect="1" arrows="1" fold="1" page="1" pageScale="1" pageWidth="827" pageHeight="1169" math="0" shadow="0">
      <root>
        <mxCell id="0" />
        <mxCell id="1" parent="0" />
        <mxCell id="mo2lsTSxyo74ScQVGG7V-13" value="Вынос точек в натуру" style="swimlane;html=1;childLayout=stackLayout;resizeParent=1;resizeParentMax=0;horizontal=0;startSize=20;horizontalStack=0;" vertex="1" parent="1">
          <mxGeometry x="300" y="-40" width="2350" height="240" as="geometry" />
        </mxCell>
        <mxCell id="mo2lsTSxyo74ScQVGG7V-14" value="Геодезист" style="swimlane;html=1;startSize=20;horizontal=0;" vertex="1" parent="mo2lsTSxyo74ScQVGG7V-13">
          <mxGeometry x="20" width="2330" height="120" as="geometry" />
        </mxCell>
        <mxCell id="mo2lsTSxyo74ScQVGG7V-50" value="" style="edgeStyle=orthogonalEdgeStyle;rounded=0;orthogonalLoop=1;jettySize=auto;html=1;" edge="1" parent="mo2lsTSxyo74ScQVGG7V-14" source="mo2lsTSxyo74ScQVGG7V-17" target="mo2lsTSxyo74ScQVGG7V-18">
          <mxGeometry relative="1" as="geometry" />
        </mxCell>
        <mxCell id="mo2lsTSxyo74ScQVGG7V-17" value="" style="points=[[0.145,0.145,0],[0.5,0,0],[0.855,0.145,0],[1,0.5,0],[0.855,0.855,0],[0.5,1,0],[0.145,0.855,0],[0,0.5,0]];shape=mxgraph.bpmn.event;html=1;verticalLabelPosition=bottom;labelBackgroundColor=#ffffff;verticalAlign=top;align=center;perimeter=ellipsePerimeter;outlineConnect=0;aspect=fixed;outline=standard;symbol=general;" vertex="1" parent="mo2lsTSxyo74ScQVGG7V-14">
          <mxGeometry x="40" y="35" width="50" height="50" as="geometry" />
        </mxCell>
        <mxCell id="mo2lsTSxyo74ScQVGG7V-18" value="Перевести координаты из генплана в проектные координаты" style="points=[[0.25,0,0],[0.5,0,0],[0.75,0,0],[1,0.25,0],[1,0.5,0],[1,0.75,0],[0.75,1,0],[0.5,1,0],[0.25,1,0],[0,0.75,0],[0,0.5,0],[0,0.25,0]];shape=mxgraph.bpmn.task;whiteSpace=wrap;rectStyle=rounded;size=10;taskMarker=abstract;" vertex="1" parent="mo2lsTSxyo74ScQVGG7V-14">
          <mxGeometry x="150" y="20" width="130" height="80" as="geometry" />
        </mxCell>
        <mxCell id="mo2lsTSxyo74ScQVGG7V-36" value="" style="edgeStyle=orthogonalEdgeStyle;rounded=0;orthogonalLoop=1;jettySize=auto;html=1;" edge="1" parent="mo2lsTSxyo74ScQVGG7V-14" source="mo2lsTSxyo74ScQVGG7V-32" target="mo2lsTSxyo74ScQVGG7V-35">
          <mxGeometry relative="1" as="geometry" />
        </mxCell>
        <mxCell id="mo2lsTSxyo74ScQVGG7V-32" value="Найти точки на местности" style="points=[[0.25,0,0],[0.5,0,0],[0.75,0,0],[1,0.25,0],[1,0.5,0],[1,0.75,0],[0.75,1,0],[0.5,1,0],[0.25,1,0],[0,0.75,0],[0,0.5,0],[0,0.25,0]];shape=mxgraph.bpmn.task;whiteSpace=wrap;rectStyle=rounded;size=10;taskMarker=abstract;" vertex="1" parent="mo2lsTSxyo74ScQVGG7V-14">
          <mxGeometry x="670" y="20" width="120" height="80" as="geometry" />
        </mxCell>
        <mxCell id="mo2lsTSxyo74ScQVGG7V-38" value="" style="edgeStyle=orthogonalEdgeStyle;rounded=0;orthogonalLoop=1;jettySize=auto;html=1;" edge="1" parent="mo2lsTSxyo74ScQVGG7V-14" source="mo2lsTSxyo74ScQVGG7V-35" target="mo2lsTSxyo74ScQVGG7V-37">
          <mxGeometry relative="1" as="geometry" />
        </mxCell>
        <mxCell id="mo2lsTSxyo74ScQVGG7V-35" value="Вынести точки на местность" style="points=[[0.25,0,0],[0.5,0,0],[0.75,0,0],[1,0.25,0],[1,0.5,0],[1,0.75,0],[0.75,1,0],[0.5,1,0],[0.25,1,0],[0,0.75,0],[0,0.5,0],[0,0.25,0]];shape=mxgraph.bpmn.task;whiteSpace=wrap;rectStyle=rounded;size=10;taskMarker=abstract;" vertex="1" parent="mo2lsTSxyo74ScQVGG7V-14">
          <mxGeometry x="860" y="20" width="120" height="80" as="geometry" />
        </mxCell>
        <mxCell id="mo2lsTSxyo74ScQVGG7V-73" value="" style="edgeStyle=orthogonalEdgeStyle;rounded=0;orthogonalLoop=1;jettySize=auto;html=1;" edge="1" parent="mo2lsTSxyo74ScQVGG7V-14" source="mo2lsTSxyo74ScQVGG7V-37" target="mo2lsTSxyo74ScQVGG7V-72">
          <mxGeometry relative="1" as="geometry" />
        </mxCell>
        <mxCell id="mo2lsTSxyo74ScQVGG7V-37" value="Проверить точки на местности" style="points=[[0.25,0,0],[0.5,0,0],[0.75,0,0],[1,0.25,0],[1,0.5,0],[1,0.75,0],[0.75,1,0],[0.5,1,0],[0.25,1,0],[0,0.75,0],[0,0.5,0],[0,0.25,0]];shape=mxgraph.bpmn.task;whiteSpace=wrap;rectStyle=rounded;size=10;taskMarker=abstract;" vertex="1" parent="mo2lsTSxyo74ScQVGG7V-14">
          <mxGeometry x="1060" y="20" width="120" height="80" as="geometry" />
        </mxCell>
        <mxCell id="mo2lsTSxyo74ScQVGG7V-44" value="" style="edgeStyle=orthogonalEdgeStyle;rounded=0;orthogonalLoop=1;jettySize=auto;html=1;startArrow=none;" edge="1" parent="mo2lsTSxyo74ScQVGG7V-14" source="mo2lsTSxyo74ScQVGG7V-64" target="mo2lsTSxyo74ScQVGG7V-42">
          <mxGeometry relative="1" as="geometry" />
        </mxCell>
        <mxCell id="mo2lsTSxyo74ScQVGG7V-39" value="" style="points=[[0.25,0.25,0],[0.5,0,0],[0.75,0.25,0],[1,0.5,0],[0.75,0.75,0],[0.5,1,0],[0.25,0.75,0],[0,0.5,0]];shape=mxgraph.bpmn.gateway2;html=1;verticalLabelPosition=bottom;labelBackgroundColor=#ffffff;verticalAlign=top;align=center;perimeter=rhombusPerimeter;outlineConnect=0;outline=none;symbol=none;gwType=exclusive;" vertex="1" parent="mo2lsTSxyo74ScQVGG7V-14">
          <mxGeometry x="1430" y="35" width="50" height="50" as="geometry" />
        </mxCell>
        <mxCell id="mo2lsTSxyo74ScQVGG7V-49" value="" style="edgeStyle=orthogonalEdgeStyle;rounded=0;orthogonalLoop=1;jettySize=auto;html=1;startArrow=none;" edge="1" parent="mo2lsTSxyo74ScQVGG7V-14" source="mo2lsTSxyo74ScQVGG7V-65" target="mo2lsTSxyo74ScQVGG7V-48">
          <mxGeometry relative="1" as="geometry" />
        </mxCell>
        <mxCell id="mo2lsTSxyo74ScQVGG7V-42" value="Поставить физические отметки на местности" style="points=[[0.25,0,0],[0.5,0,0],[0.75,0,0],[1,0.25,0],[1,0.5,0],[1,0.75,0],[0.75,1,0],[0.5,1,0],[0.25,1,0],[0,0.75,0],[0,0.5,0],[0,0.25,0]];shape=mxgraph.bpmn.task;whiteSpace=wrap;rectStyle=rounded;size=10;taskMarker=abstract;" vertex="1" parent="mo2lsTSxyo74ScQVGG7V-14">
          <mxGeometry x="1590" y="20" width="120" height="80" as="geometry" />
        </mxCell>
        <mxCell id="mo2lsTSxyo74ScQVGG7V-77" style="edgeStyle=orthogonalEdgeStyle;rounded=0;orthogonalLoop=1;jettySize=auto;html=1;startArrow=none;" edge="1" parent="mo2lsTSxyo74ScQVGG7V-14" source="mo2lsTSxyo74ScQVGG7V-78" target="mo2lsTSxyo74ScQVGG7V-76">
          <mxGeometry relative="1" as="geometry" />
        </mxCell>
        <mxCell id="mo2lsTSxyo74ScQVGG7V-48" value="Соединить физические отметки" style="points=[[0.25,0,0],[0.5,0,0],[0.75,0,0],[1,0.25,0],[1,0.5,0],[1,0.75,0],[0.75,1,0],[0.5,1,0],[0.25,1,0],[0,0.75,0],[0,0.5,0],[0,0.25,0]];shape=mxgraph.bpmn.task;whiteSpace=wrap;rectStyle=rounded;size=10;taskMarker=abstract;" vertex="1" parent="mo2lsTSxyo74ScQVGG7V-14">
          <mxGeometry x="1820" y="20" width="120" height="80" as="geometry" />
        </mxCell>
        <mxCell id="mo2lsTSxyo74ScQVGG7V-54" value="" style="edgeStyle=orthogonalEdgeStyle;rounded=0;orthogonalLoop=1;jettySize=auto;html=1;" edge="1" parent="mo2lsTSxyo74ScQVGG7V-14" source="mo2lsTSxyo74ScQVGG7V-52" target="mo2lsTSxyo74ScQVGG7V-32">
          <mxGeometry relative="1" as="geometry" />
        </mxCell>
        <mxCell id="mo2lsTSxyo74ScQVGG7V-52" value="Выйти на местность" style="points=[[0.25,0,0],[0.5,0,0],[0.75,0,0],[1,0.25,0],[1,0.5,0],[1,0.75,0],[0.75,1,0],[0.5,1,0],[0.25,1,0],[0,0.75,0],[0,0.5,0],[0,0.25,0]];shape=mxgraph.bpmn.task;whiteSpace=wrap;rectStyle=rounded;size=10;taskMarker=abstract;" vertex="1" parent="mo2lsTSxyo74ScQVGG7V-14">
          <mxGeometry x="500" y="20" width="120" height="80" as="geometry" />
        </mxCell>
        <mxCell id="mo2lsTSxyo74ScQVGG7V-57" value="Тахеометр" style="text;html=1;align=center;verticalAlign=middle;resizable=0;points=[];autosize=1;strokeColor=none;fillColor=none;" vertex="1" parent="mo2lsTSxyo74ScQVGG7V-14">
          <mxGeometry x="790" y="60" width="70" height="20" as="geometry" />
        </mxCell>
        <mxCell id="mo2lsTSxyo74ScQVGG7V-58" value="Точные координаты" style="text;html=1;align=center;verticalAlign=middle;resizable=0;points=[];autosize=1;strokeColor=none;fillColor=none;rotation=90;" vertex="1" parent="mo2lsTSxyo74ScQVGG7V-14">
          <mxGeometry x="260" y="100" width="130" height="20" as="geometry" />
        </mxCell>
        <mxCell id="mo2lsTSxyo74ScQVGG7V-61" value="AutoCAD" style="text;html=1;align=center;verticalAlign=middle;resizable=0;points=[];autosize=1;strokeColor=none;fillColor=none;" vertex="1" parent="mo2lsTSxyo74ScQVGG7V-14">
          <mxGeometry x="89" y="60" width="70" height="20" as="geometry" />
        </mxCell>
        <mxCell id="mo2lsTSxyo74ScQVGG7V-62" value="Тахеометр" style="text;html=1;align=center;verticalAlign=middle;resizable=0;points=[];autosize=1;strokeColor=none;fillColor=none;" vertex="1" parent="mo2lsTSxyo74ScQVGG7V-14">
          <mxGeometry x="990" y="60" width="70" height="20" as="geometry" />
        </mxCell>
        <mxCell id="mo2lsTSxyo74ScQVGG7V-63" value="CREDO" style="text;html=1;align=center;verticalAlign=middle;resizable=0;points=[];autosize=1;strokeColor=none;fillColor=none;rotation=90;" vertex="1" parent="mo2lsTSxyo74ScQVGG7V-14">
          <mxGeometry x="1450" y="100" width="60" height="20" as="geometry" />
        </mxCell>
        <mxCell id="mo2lsTSxyo74ScQVGG7V-65" value="Опалубка" style="text;html=1;align=center;verticalAlign=middle;resizable=0;points=[];autosize=1;strokeColor=none;fillColor=none;" vertex="1" parent="mo2lsTSxyo74ScQVGG7V-14">
          <mxGeometry x="1740" y="50" width="70" height="20" as="geometry" />
        </mxCell>
        <mxCell id="mo2lsTSxyo74ScQVGG7V-69" value="" style="edgeStyle=orthogonalEdgeStyle;rounded=0;orthogonalLoop=1;jettySize=auto;html=1;endArrow=none;" edge="1" parent="mo2lsTSxyo74ScQVGG7V-14" source="mo2lsTSxyo74ScQVGG7V-42" target="mo2lsTSxyo74ScQVGG7V-65">
          <mxGeometry relative="1" as="geometry">
            <mxPoint x="1794" y="20" as="sourcePoint" />
            <mxPoint x="2129.9999999999995" y="20" as="targetPoint" />
          </mxGeometry>
        </mxCell>
        <mxCell id="mo2lsTSxyo74ScQVGG7V-64" value="Колышки" style="text;html=1;align=center;verticalAlign=middle;resizable=0;points=[];autosize=1;strokeColor=none;fillColor=none;" vertex="1" parent="mo2lsTSxyo74ScQVGG7V-14">
          <mxGeometry x="1500" y="50" width="70" height="20" as="geometry" />
        </mxCell>
        <mxCell id="mo2lsTSxyo74ScQVGG7V-70" value="" style="edgeStyle=orthogonalEdgeStyle;rounded=0;orthogonalLoop=1;jettySize=auto;html=1;endArrow=none;" edge="1" parent="mo2lsTSxyo74ScQVGG7V-14" source="mo2lsTSxyo74ScQVGG7V-39" target="mo2lsTSxyo74ScQVGG7V-64">
          <mxGeometry relative="1" as="geometry">
            <mxPoint x="1610" y="20" as="sourcePoint" />
            <mxPoint x="1910" y="20" as="targetPoint" />
          </mxGeometry>
        </mxCell>
        <mxCell id="mo2lsTSxyo74ScQVGG7V-75" style="edgeStyle=orthogonalEdgeStyle;rounded=0;orthogonalLoop=1;jettySize=auto;html=1;entryX=0;entryY=0.5;entryDx=0;entryDy=0;entryPerimeter=0;" edge="1" parent="mo2lsTSxyo74ScQVGG7V-14" source="mo2lsTSxyo74ScQVGG7V-72" target="mo2lsTSxyo74ScQVGG7V-39">
          <mxGeometry relative="1" as="geometry" />
        </mxCell>
        <mxCell id="mo2lsTSxyo74ScQVGG7V-72" value="Сравнить координаты точек местности и проекта" style="points=[[0.25,0,0],[0.5,0,0],[0.75,0,0],[1,0.25,0],[1,0.5,0],[1,0.75,0],[0.75,1,0],[0.5,1,0],[0.25,1,0],[0,0.75,0],[0,0.5,0],[0,0.25,0]];shape=mxgraph.bpmn.task;whiteSpace=wrap;rectStyle=rounded;size=10;taskMarker=abstract;" vertex="1" parent="mo2lsTSxyo74ScQVGG7V-14">
          <mxGeometry x="1260" y="20" width="120" height="80" as="geometry" />
        </mxCell>
        <mxCell id="mo2lsTSxyo74ScQVGG7V-76" value="" style="points=[[0.145,0.145,0],[0.5,0,0],[0.855,0.145,0],[1,0.5,0],[0.855,0.855,0],[0.5,1,0],[0.145,0.855,0],[0,0.5,0]];shape=mxgraph.bpmn.event;html=1;verticalLabelPosition=bottom;labelBackgroundColor=#ffffff;verticalAlign=top;align=center;perimeter=ellipsePerimeter;outlineConnect=0;aspect=fixed;outline=end;symbol=terminate2;" vertex="1" parent="mo2lsTSxyo74ScQVGG7V-14">
          <mxGeometry x="2100" y="35" width="50" height="50" as="geometry" />
        </mxCell>
        <mxCell id="mo2lsTSxyo74ScQVGG7V-78" value="Контур дома" style="text;html=1;align=center;verticalAlign=middle;resizable=0;points=[];autosize=1;strokeColor=none;fillColor=none;" vertex="1" parent="mo2lsTSxyo74ScQVGG7V-14">
          <mxGeometry x="1975" y="50" width="90" height="20" as="geometry" />
        </mxCell>
        <mxCell id="mo2lsTSxyo74ScQVGG7V-79" value="" style="edgeStyle=orthogonalEdgeStyle;rounded=0;orthogonalLoop=1;jettySize=auto;html=1;endArrow=none;" edge="1" parent="mo2lsTSxyo74ScQVGG7V-14" source="mo2lsTSxyo74ScQVGG7V-48" target="mo2lsTSxyo74ScQVGG7V-78">
          <mxGeometry relative="1" as="geometry">
            <mxPoint x="2260" y="20" as="sourcePoint" />
            <mxPoint x="2420" y="20" as="targetPoint" />
          </mxGeometry>
        </mxCell>
        <mxCell id="mo2lsTSxyo74ScQVGG7V-94" value="ГЛАЗА" style="text;html=1;align=center;verticalAlign=middle;resizable=0;points=[];autosize=1;strokeColor=none;fillColor=none;" vertex="1" parent="mo2lsTSxyo74ScQVGG7V-14">
          <mxGeometry x="620" y="35" width="50" height="20" as="geometry" />
        </mxCell>
        <mxCell id="mo2lsTSxyo74ScQVGG7V-15" value="Компухтер" style="swimlane;html=1;startSize=20;horizontal=0;" vertex="1" parent="mo2lsTSxyo74ScQVGG7V-13">
          <mxGeometry x="20" y="120" width="2330" height="120" as="geometry" />
        </mxCell>
        <mxCell id="mo2lsTSxyo74ScQVGG7V-23" value="Совместить координаты плана и проекта" style="points=[[0.25,0,0],[0.5,0,0],[0.75,0,0],[1,0.25,0],[1,0.5,0],[1,0.75,0],[0.75,1,0],[0.5,1,0],[0.25,1,0],[0,0.75,0],[0,0.5,0],[0,0.25,0]];shape=mxgraph.bpmn.task;whiteSpace=wrap;rectStyle=rounded;size=10;taskMarker=abstract;" vertex="1" parent="mo2lsTSxyo74ScQVGG7V-15">
          <mxGeometry x="340" y="20" width="125" height="80" as="geometry" />
        </mxCell>
        <mxCell id="mo2lsTSxyo74ScQVGG7V-45" value="Пересчитать координаты" style="points=[[0.25,0,0],[0.5,0,0],[0.75,0,0],[1,0.25,0],[1,0.5,0],[1,0.75,0],[0.75,1,0],[0.5,1,0],[0.25,1,0],[0,0.75,0],[0,0.5,0],[0,0.25,0]];shape=mxgraph.bpmn.task;whiteSpace=wrap;rectStyle=rounded;size=10;taskMarker=abstract;" vertex="1" parent="mo2lsTSxyo74ScQVGG7V-15">
          <mxGeometry x="1395" y="30" width="120" height="80" as="geometry" />
        </mxCell>
        <mxCell id="mo2lsTSxyo74ScQVGG7V-82" value="Акт приема" style="shape=mxgraph.bpmn.data;labelPosition=center;verticalLabelPosition=bottom;align=center;verticalAlign=top;whiteSpace=wrap;size=15;html=1;" vertex="1" parent="mo2lsTSxyo74ScQVGG7V-15">
          <mxGeometry x="2090" y="10" width="40" height="60" as="geometry" />
        </mxCell>
        <mxCell id="mo2lsTSxyo74ScQVGG7V-96" value="Тахеометр" style="text;html=1;align=center;verticalAlign=middle;resizable=0;points=[];autosize=1;strokeColor=none;fillColor=none;rotation=-90;" vertex="1" parent="mo2lsTSxyo74ScQVGG7V-15">
          <mxGeometry x="465" y="30" width="70" height="20" as="geometry" />
        </mxCell>
        <mxCell id="mo2lsTSxyo74ScQVGG7V-46" value="" style="edgeStyle=orthogonalEdgeStyle;rounded=0;orthogonalLoop=1;jettySize=auto;html=1;" edge="1" parent="mo2lsTSxyo74ScQVGG7V-13" source="mo2lsTSxyo74ScQVGG7V-39" target="mo2lsTSxyo74ScQVGG7V-45">
          <mxGeometry relative="1" as="geometry" />
        </mxCell>
        <mxCell id="mo2lsTSxyo74ScQVGG7V-47" style="edgeStyle=orthogonalEdgeStyle;rounded=0;orthogonalLoop=1;jettySize=auto;html=1;entryX=0.5;entryY=1;entryDx=0;entryDy=0;entryPerimeter=0;exitX=0;exitY=0.5;exitDx=0;exitDy=0;exitPerimeter=0;" edge="1" parent="mo2lsTSxyo74ScQVGG7V-13" source="mo2lsTSxyo74ScQVGG7V-45" target="mo2lsTSxyo74ScQVGG7V-17">
          <mxGeometry relative="1" as="geometry">
            <Array as="points">
              <mxPoint x="1285" y="190" />
              <mxPoint x="1285" y="230" />
              <mxPoint x="85" y="230" />
            </Array>
          </mxGeometry>
        </mxCell>
        <mxCell id="mo2lsTSxyo74ScQVGG7V-51" style="edgeStyle=orthogonalEdgeStyle;rounded=0;orthogonalLoop=1;jettySize=auto;html=1;entryX=0;entryY=0.5;entryDx=0;entryDy=0;entryPerimeter=0;" edge="1" parent="mo2lsTSxyo74ScQVGG7V-13" source="mo2lsTSxyo74ScQVGG7V-18" target="mo2lsTSxyo74ScQVGG7V-23">
          <mxGeometry relative="1" as="geometry" />
        </mxCell>
        <mxCell id="mo2lsTSxyo74ScQVGG7V-53" style="edgeStyle=orthogonalEdgeStyle;rounded=0;orthogonalLoop=1;jettySize=auto;html=1;entryX=0;entryY=0.5;entryDx=0;entryDy=0;entryPerimeter=0;" edge="1" parent="mo2lsTSxyo74ScQVGG7V-13" source="mo2lsTSxyo74ScQVGG7V-23" target="mo2lsTSxyo74ScQVGG7V-52">
          <mxGeometry relative="1" as="geometry">
            <Array as="points">
              <mxPoint x="505" y="180" />
              <mxPoint x="505" y="60" />
            </Array>
          </mxGeometry>
        </mxCell>
        <mxCell id="mo2lsTSxyo74ScQVGG7V-83" style="edgeStyle=orthogonalEdgeStyle;rounded=0;orthogonalLoop=1;jettySize=auto;html=1;entryX=0.496;entryY=0.987;entryDx=0;entryDy=0;entryPerimeter=0;dashed=1;" edge="1" parent="mo2lsTSxyo74ScQVGG7V-13" source="mo2lsTSxyo74ScQVGG7V-82" target="mo2lsTSxyo74ScQVGG7V-78">
          <mxGeometry relative="1" as="geometry" />
        </mxCell>
        <mxCell id="mo2lsTSxyo74ScQVGG7V-25" value="Credo" style="text;html=1;align=center;verticalAlign=middle;resizable=0;points=[];autosize=1;strokeColor=none;fillColor=none;" vertex="1" parent="1">
          <mxGeometry x="215" y="150" width="50" height="20" as="geometry" />
        </mxCell>
        <mxCell id="mo2lsTSxyo74ScQVGG7V-85" style="edgeStyle=orthogonalEdgeStyle;rounded=0;orthogonalLoop=1;jettySize=auto;html=1;entryX=0.479;entryY=0.174;entryDx=0;entryDy=0;entryPerimeter=0;dashed=1;" edge="1" parent="1" source="mo2lsTSxyo74ScQVGG7V-84" target="mo2lsTSxyo74ScQVGG7V-57">
          <mxGeometry relative="1" as="geometry" />
        </mxCell>
        <mxCell id="mo2lsTSxyo74ScQVGG7V-86" style="edgeStyle=orthogonalEdgeStyle;rounded=0;orthogonalLoop=1;jettySize=auto;html=1;dashed=1;" edge="1" parent="1" source="mo2lsTSxyo74ScQVGG7V-84">
          <mxGeometry relative="1" as="geometry">
            <mxPoint x="1540" y="20" as="targetPoint" />
          </mxGeometry>
        </mxCell>
        <mxCell id="mo2lsTSxyo74ScQVGG7V-84" value="СНиП" style="shape=mxgraph.bpmn.data;labelPosition=center;verticalLabelPosition=bottom;align=center;verticalAlign=top;whiteSpace=wrap;size=15;html=1;" vertex="1" parent="1">
          <mxGeometry x="1320" y="-160" width="40" height="60" as="geometry" />
        </mxCell>
        <mxCell id="mo2lsTSxyo74ScQVGG7V-92" style="edgeStyle=orthogonalEdgeStyle;rounded=0;orthogonalLoop=1;jettySize=auto;html=1;entryX=0.235;entryY=0.025;entryDx=0;entryDy=0;entryPerimeter=0;dashed=1;" edge="1" parent="1" source="mo2lsTSxyo74ScQVGG7V-87" target="mo2lsTSxyo74ScQVGG7V-61">
          <mxGeometry relative="1" as="geometry" />
        </mxCell>
        <mxCell id="mo2lsTSxyo74ScQVGG7V-87" value="Проект" style="shape=mxgraph.bpmn.data;labelPosition=center;verticalLabelPosition=bottom;align=center;verticalAlign=top;whiteSpace=wrap;size=15;html=1;" vertex="1" parent="1">
          <mxGeometry x="374" y="-150" width="40" height="60" as="geometry" />
        </mxCell>
        <mxCell id="mo2lsTSxyo74ScQVGG7V-91" style="edgeStyle=orthogonalEdgeStyle;rounded=0;orthogonalLoop=1;jettySize=auto;html=1;entryX=0.465;entryY=-0.101;entryDx=0;entryDy=0;entryPerimeter=0;dashed=1;" edge="1" parent="1" source="mo2lsTSxyo74ScQVGG7V-88" target="mo2lsTSxyo74ScQVGG7V-61">
          <mxGeometry relative="1" as="geometry" />
        </mxCell>
        <mxCell id="mo2lsTSxyo74ScQVGG7V-88" value="Выкопировка из генплана" style="shape=mxgraph.bpmn.data;labelPosition=center;verticalLabelPosition=bottom;align=center;verticalAlign=top;whiteSpace=wrap;size=15;html=1;" vertex="1" parent="1">
          <mxGeometry x="460" y="-150" width="40" height="60" as="geometry" />
        </mxCell>
        <mxCell id="mo2lsTSxyo74ScQVGG7V-99" style="edgeStyle=orthogonalEdgeStyle;rounded=0;orthogonalLoop=1;jettySize=auto;html=1;entryX=0;entryY=0.5;entryDx=0;entryDy=0;entryPerimeter=0;dashed=1;" edge="1" parent="1" source="mo2lsTSxyo74ScQVGG7V-97" target="mo2lsTSxyo74ScQVGG7V-52">
          <mxGeometry relative="1" as="geometry" />
        </mxCell>
        <mxCell id="mo2lsTSxyo74ScQVGG7V-97" value="Привязанный проект с координатами" style="text;html=1;align=center;verticalAlign=middle;resizable=0;points=[];autosize=1;strokeColor=none;fillColor=none;rotation=0;" vertex="1" parent="1">
          <mxGeometry x="670" y="-110" width="220" height="20" as="geometry" />
        </mxCell>
      </root>
    </mxGraphModel>
  </diagram>
</mxfile>
